<svg id="logo" width="40vw" height="100%" viewBox="0 0 781 780" fill="none" xmlns="http://www.w3.org/2000/svg"><path fill-rule="evenodd" clip-rule="evenodd" d="M468.735 696.36C468.851 696.012 468.909 695.721 469.025 695.315L469.083 694.966 469.432 695.024C473.615 695.373 474.661 693.514 474.836 691.307 474.894 690.436 474.894 689.506 474.836 688.577 474.719 686.312 474.661 684.279 476.288 683.64L477.799 683.059C479.193 682.536 482.156 682.827 484.829 683.524 487.56 684.221 490.058 685.382 490.523 686.544L490.639 686.951C491.046 687.996 490.465 688.751 489.826 689.448 489.652 689.622 489.536 689.797 489.419 689.971L489.303 690.145H489.071L482.272 689.971C481.169 691.365 480.704 692.759 480.704 694.327 480.704 696.012 481.227 697.928 482.098 700.194L482.214 700.6C483.551 704.085 485.584 705.537 487.327 706.757 488.78 707.802 490.058 708.732 490.755 710.474 491.162 711.52 490.755 713.262 490.349 715.179 489.884 717.27 489.361 719.535 489.884 720.871 490.871 723.485 493.428 722.614 495.869 721.859 498.309 721.045 500.633 720.29 501.505 722.614 503.131 726.912 499.819 728.771 496.566 730.629 495.985 730.978 495.404 731.268 494.881 731.617L494.823 731.675C493.893 732.256 492.963 732.894 492.034 733.533 489.536 735.218 486.921 737.018 483.725 738.18L483.551 738.238 483.377 738.18 480.53 736.728 480.297 736.612V736.379C479.891 732.72 481.227 731.152 482.446 729.816 483.551 728.596 484.48 727.493 483.435 724.705L483.144 723.95C482.272 721.684 481.285 720.987 480.413 720.349 479.541 719.71 478.728 719.129 478.147 717.56 477.799 716.631 478.38 715.528 479.077 714.192 479.949 712.565 480.994 710.591 480.762 708.325 479.425 707.222 477.741 706.815 476.113 706.409 473.266 705.711 470.419 705.073 468.851 700.949 468.037 698.742 468.328 697.696 468.735 696.418V696.36zM474.022 699.38 474.139 699.787C474.255 700.135 474.487 700.368 474.777 700.484 475.068 700.6 475.358 700.6 475.707 700.484L476.462 700.194C476.81 700.077 477.044 699.845 477.16 699.555 477.276 699.264 477.276 698.974 477.16 698.625 477.044 698.335 476.636 697.928 476.229 697.58 475.881 697.289 475.474 697.115 475.3 697.173 474.894 697.348 474.487 697.696 474.197 698.103 473.964 698.509 473.789 698.974 473.964 699.38H474.022zm-17.14-9.351C455.545 692.294 454.79 693.63 454.383 697.87 455.08 697.986 455.835 697.928 456.533 697.87 457.869 697.754 459.031 697.696 459.438 698.8L460.019 700.31C460.484 701.529 460.31 702.459 460.077 703.388 459.903 704.259 459.671 705.189 460.135 706.35 460.6 707.57 461.471 708.093 462.227 708.5 462.866 708.848 463.389 709.196 463.621 709.835L464.028 710.997C464.783 713.03 463.68 719.71 463.273 721.975L463.215 722.149 463.621 722.614 466.469 719.245 466.933 718.664 467.224 719.361C467.804 720.987 467.921 725.576 467.746 729.874 467.572 734.23 466.933 738.296 466.178 738.587 464.667 739.167 463.447 738.587 462.46 737.483 461.529 736.496 460.891 735.044 460.368 733.766 458.682 729.293 459.322 724.763 459.787 721.278 460.077 719.187 460.31 717.444 459.961 716.457L459.264 714.54C459.205 714.308 458.857 714.017 458.392 713.669 457.753 713.146 456.882 712.449 456.242 711.404 455.661 710.474 455.603 709.893 455.545 709.196 455.487 708.616 455.429 707.977 455.022 706.873 454.732 706.873 454.557 706.873 454.441 706.873 454.267 706.873 454.209 706.873 453.802 706.989 453.512 707.105 453.279 708.209 453.046 709.487 452.582 711.752 452.001 714.656 450.025 715.411 449.27 715.702 448.979 715.702 448.573 715.702 448.399 715.702 448.166 715.702 447.876 715.76L447.527 715.818 447.41 715.469 445.668 710.881C445.087 709.371 446.597 706.699 447.702 704.782 448.05 704.143 448.341 703.62 448.515 703.272 449.793 700.484 450.083 699.264 450.839 696.592L451.13 695.605C451.478 694.385 451.71 692.933 451.827 691.539 452.001 690.087 452.059 688.635 452.117 687.299 452.117 686.776 452.001 682.711 451.885 680.213 451.885 679.806 451.827 679.342 451.827 678.935 451.827 678.587 451.768 678.354 451.768 678.296L451.71 678.006 452.001 677.89C452.698 677.541 452.872 677.425 452.93 677.309 453.104 677.135 453.221 677.018 453.802 676.786 454.325 676.612 455.022 676.612 455.719 676.844 455.951 676.902 456.242 677.018 456.533 677.135 456.824 677.251 457.056 677.367 457.346 677.483 458.566 678.122 459.671 678.993 459.903 679.69 460.135 680.329 460.194 681.026 460.135 681.839 460.135 682.072 460.077 682.362 460.077 682.594 460.019 683.117 459.903 683.582 459.787 684.105 459.555 685.092 459.205 685.963 458.915 686.486 458.16 687.996 457.521 689.1 456.998 690.029H456.882zM471.582 683.233 471.466 683.291 471.059 683.466 470.884 683.059C470.245 681.258 471.582 677.89 473.208 675.799 473.557 675.392 473.847 674.985 474.197 674.695 474.545 674.405 474.894 674.114 475.242 673.998L475.358 673.94C477.16 673.243 479.135 672.546 480.936 672.372 482.796 672.197 484.422 672.546 485.468 673.94L485.701 674.288 485.352 674.521C483.202 676.031 482.388 676.438 481.052 677.076 480.297 677.425 479.309 677.89 477.799 678.761 476.636 679.4 475.532 680.329 474.545 681.142 473.499 682.014 472.511 682.827 471.64 683.175L471.582 683.233z" fill="#0061ae"/><path fill-rule="evenodd" clip-rule="evenodd" d="M310.636 696.941C310.752 696.825 310.869 696.709 311.043 696.36L311.159 696.128H311.45L313.541 696.244H313.716L313.832 696.36C313.948 696.476 314.064 696.592 314.18 696.709 315.053 697.464 315.691 698.103 315.227 699.961L315.053 700.774C314.878 701.471 314.414 701.878 313.832 702.11 313.309 702.285 312.67 702.343 312.147 702.168 311.449 701.994 310.869 701.355 310.52 700.484 310.172 699.671 310.055 698.742 310.288 697.87 310.404 697.289 310.52 697.173 310.694 696.941H310.636zM348.578 694.734C348.287 696.012 348.694 696.767 349.217 697.58 349.449 697.986 349.682 698.335 349.856 698.8 350.96 699.09 352.122 699.497 353.052 700.077 354.156 700.774 354.853 701.704 354.504 702.924L354.098 704.492C353.459 707.105 351.425 707.105 349.275 707.164 347.59 707.164 345.847 707.222 345.092 708.848 344.685 709.719 344.685 710.242 344.627 710.649 344.627 711.52 344.569 711.926 342.361 713.204 342.186 713.32 342.012 713.437 341.78 713.553 340.501 714.25 339.688 714.714 339.165 716.863L338.759 718.432C338.41 719.942 338.003 722.091 337.48 724.647 336.841 728.132 336.028 732.256 335.098 736.089 333.122 743.988 330.392 750.958 326.325 749.913 325.511 749.739 325.336 749.448 325.046 749.042 324.988 748.925 324.872 748.751 324.755 748.635L324.639 748.461V748.286L325.278 743.814V743.756L326.557 738.587C327.022 736.612 328.009 734.056 328.997 731.384 330.508 727.318 332.077 723.195 331.96 721.162 330.333 721.626 329.23 722.439 328.067 723.253 326.731 724.24 325.22 725.286 322.663 726.099 321.792 726.389 320.863 726.505 319.991 726.68 318.945 726.854 317.9 727.028 317.144 727.377 316.214 727.841 315.808 728.248 315.401 728.596 314.704 729.235 314.122 729.758 312.031 730.281L311.799 730.339 311.625 730.223C310.985 729.7 310.636 729.526 310.346 729.351 309.823 729.119 309.475 728.945 308.486 727.609 308.254 727.318 308.021 726.97 307.789 726.68 307.208 725.924 306.686 725.227 305.872 724.53 303.722 722.614 301.456 724.008 299.248 725.344L298.841 725.576C297.622 726.273 296.517 726.97 295.471 727.551 291.927 729.584 288.906 731.326 285.42 734.521L285.13 734.753 284.838 734.521 283.444 733.301 283.212 733.127 283.328 732.836C284.955 728.015 290.649 724.356 296.343 720.697 300.12 718.258 303.838 715.876 306.221 713.204L306.279 711.926C305.989 711.752 305.814 711.636 305.698 711.578 305.582 711.462 305.524 711.404 305.116 711.346 304.419 711.171 303.838 711.055 303.258 710.997 300.991 710.649 299.83 710.416 299.19 706.989 298.899 705.595 298.783 704.376 298.783 703.04S299.016 700.31 299.422 698.567L300.875 692.585C301.863 688.577 303.606 684.105 306.047 681.433 306.511 680.91 307.034 680.445 307.557 680.039 308.08 679.632 308.661 679.342 309.3 679.167L310.113 678.935 309.881 679.748 308.545 684.046C308.37 684.627 308.719 685.382 308.952 686.021L309.01 686.079C312.612 685.034 314.994 682.42 317.377 679.806 318.887 678.122 320.398 676.438 322.315 675.044 324.639 673.359 327.196 673.011 329.462 673.533 330.45 673.766 331.437 674.23 332.251 674.811 333.122 675.392 333.819 676.089 334.458 676.902 335.737 678.645 336.318 680.852 335.737 683.175 335.447 684.279 334.168 684.918 332.6 685.731 330.275 686.893 327.196 688.403 325.917 692.178 325.22 694.211 324.349 696.302 323.42 698.451 322.083 701.529 320.747 704.724 319.933 707.861V707.919C319.584 709.255 318.887 712.74 318.539 715.934 318.19 718.954 318.132 721.742 318.945 721.975 319.991 722.207 323.826 719.71 327.428 717.154 330.972 714.656 334.226 712.159 334.458 711.868 334.575 711.287 334.575 711.055 334.575 710.707 334.575 710.591 334.575 710.416 334.575 710.184 334.284 710.01 334.11 709.893 333.994 709.777 333.878 709.661 333.819 709.603 333.413 709.545 332.948 709.429 331.96 709.603 330.682 709.835 328.822 710.184 326.441 710.591 324.465 710.242 324.349 710.242 324.175 710.184 324 710.126L323.71 710.068V709.777L323.594 708.093V707.861L323.768 707.744C326.615 705.131 329.985 704.608 333.122 704.085 336.55 703.504 339.688 702.982 341.431 699.729 342.245 698.161 343 696.825 343.639 695.605 346.602 690.145 348.171 687.357 350.611 676.96L350.67 676.728 350.902 676.67 353.865 675.45 354.272 675.276 354.446 675.682C354.678 676.263 355.143 676.786 355.55 677.309 356.48 678.354 357.409 679.342 356.945 681.2 356.306 683.872 354.039 686.718 352.006 689.274 350.379 691.365 348.868 693.282 348.52 694.676L348.578 694.734zM317.085 687.299V687.357L316.969 687.764C316.853 688.17 317.027 688.519 317.26 688.751 317.609 689.042 318.074 689.274 318.655 689.39L319.874 689.681C321.966 690.203 323.245 686.254 323.884 683.756 323.942 683.408 324.058 683.117 324.117 682.827 322.373 682.711 319.933 684.163 318.364 685.615 318.016 685.905 317.783 686.254 317.551 686.544 317.377 686.834 317.202 687.067 317.144 687.299H317.085zm-12.608 15.044C304.303 703.156 304.303 704.259 304.535 705.189 304.71 706.002 305.058 706.699 305.465 706.815 306.802 707.164 309.765 706.234 311.915 705.421 312.322 705.247 312.728 705.073 313.077 704.956 313.425 704.782 313.658 704.666 313.89 704.55 315.169 703.795 316.33 703.04 317.319 701.994 318.306 700.949 319.061 699.671 319.526 697.754L319.816 696.534C319.933 696.07 319.758 695.721 319.526 695.373 319.41 695.198 319.352 695.082 319.236 694.85L316.04 695.198H315.808L315.633 695.024 313.948 693.34 313.774 693.166 313.832 692.933 314.238 691.249 313.251 690.378C311.391 691.016 308.428 694.56 306.395 697.928 305.989 698.625 305.582 699.322 305.291 699.961 304.884 700.833 304.535 701.704 304.361 702.401L304.477 702.343zM312.031 713.959C311.567 714.714 311.275 715.76 311.043 716.631L310.346 719.419C310.23 720 310.346 720.116 310.578 720.349 310.694 720.465 310.752 720.581 310.869 720.697 311.683 720.465 312.38 720.29 312.844 719.884 313.367 719.419 313.774 718.722 314.122 717.444L314.82 714.656C314.878 714.308 314.878 714.017 314.704 713.727 314.53 713.495 314.296 713.262 313.948 713.204L313.541 713.088C312.902 712.914 312.38 713.32 311.973 714.017L312.031 713.959z" fill="#0061ae"/><path fill-rule="evenodd" clip-rule="evenodd" d="M89.9618 521.994C90.4266 521.413 90.9496 520.716 92.5184 520.252 92.7507 519.787 93.2737 518.8 93.7386 517.812 94.2033 516.941 94.6682 516.128 94.8424 515.663 94.9006 515.605 94.9587 515.779 94.9587 515.663 94.2033 513.049 92.9832 512.875 90.659 512.643H90.4266C89.8456 512.585 89.3227 512.527 88.5673 512.41 86.8823 512.236 84.9069 512.062 83.6286 512.41 83.2219 512.527 83.1638 512.585 83.0475 512.643 82.9314 512.759 82.757 512.875 82.4665 513.049 82.4665 513.456 82.4084 513.63 82.4084 513.746 82.4084 513.863 82.3503 513.921 82.4665 514.327 82.8733 515.837 83.7448 518.161 84.965 520.019 86.127 521.762 87.4634 523.156 88.7998 522.807 89.4389 522.633 89.6713 522.343 89.9618 521.936V521.994zM127.031 514.56 129.297 515.257 129.53 515.315 129.588 515.547C130.518 518.974 130.925 522.227 130.111 524.898 129.297 527.628 127.205 529.661 123.255 530.707 119.536 531.636 115.934 531.346 112.215 531.055 108.206 530.765 104.081 530.416 99.4326 531.578L95.4817 532.565C94.8424 532.74 94.6101 532.856 94.3777 533.03 94.2614 533.088 94.1452 533.146 94.0291 533.262L94.3196 534.54C94.8424 536.747 96.4113 538.316 97.8639 539.884 98.5611 540.581 99.2002 541.278 99.7812 542.033 100.362 542.788 100.827 543.485 101.234 544.124 102.512 545.983 103.325 547.202 105.766 548.132L113.958 544.647 114.075 544.589h.116L114.597 544.647C115.12 544.53 115.527 544.53 115.818 544.763 116.167 544.995 116.341 545.344 116.515 545.924L116.631 546.331C116.98 547.667 114.133 551.036 110.821 554.172 107.567 557.251 103.732 560.097 102.047 560.561 100.885 560.852 99.1421 560.678 97.6314 560.039 96.0627 559.4 94.7263 558.354 94.3777 556.96L94.2614 556.554C93.6223 554.114 95.4235 553.127 97.0504 552.139 98.3286 551.442 99.5488 550.745 99.2002 549.409 98.9677 548.364 96.2369 546.68 94.7263 545.75 94.4358 545.576 94.1452 545.402 93.9709 545.286 91.8792 543.892 91.3563 542.73 90.5429 540.813 90.2524 540.174 89.9618 539.477 89.5551 538.722L88.9159 537.502C86.7662 533.204 84.2677 528.151 81.6531 525.131 79.1547 522.227 77.2373 520.774 75.3199 519.264 74.0416 518.277 72.7052 517.231 71.1365 515.779 69.9163 514.618 69.219 513.456 68.9285 512.294 68.6962 511.365 68.7543 510.494 69.0448 509.681 69.3353 508.867 69.8001 508.112 70.4392 507.415 71.8337 505.905 74.0997 504.743 76.54 504.105L76.9468 503.988C80.5492 503.059 86.5918 503.524 91.2401 505.15 93.2156 505.847 95.0168 506.776 96.2369 507.88 97.5153 509.042 98.2705 510.436 98.1544 512.062 98.0962 513.282 97.5152 514.618 96.3532 516.012 96.295 516.07 95.714 517.057 95.0749 518.103 94.4358 519.148 93.7966 520.252 93.5061 520.658L94.3196 522.807 109.31 520.019 118.374 517.58 126.915 514.56 127.031 514.501 127.147 514.56h-.116z" fill="#0061ae"/><path fill-rule="evenodd" clip-rule="evenodd" d="M588.369 627.822C588.195 630.784 588.079 633.804 589.706 635.663L590.229 636.302C590.926 637.115 591.913 637.58 592.96 637.696 594.005 637.812 595.051 637.464 595.923 636.709 596.33 636.36 596.736 635.837 597.201 635.315 597.782 634.676 598.362 633.921 599.002 633.398 600.513 632.12 602.256 631.539 604.289 633.863 606.671 636.651 603.127 639.903 600.222 642.633 599.525 643.272 598.886 643.853 598.362 644.434 596.794 646.118 596.678 649.371 597.491 651.868 597.665 652.333 597.84 652.798 598.014 653.262 598.246 653.669 598.48 654.017 598.712 654.308L600.861 656.805C602.779 659.071 608.473 659.071 612.772 658.432 613.644 658.316 614.399 658.141 615.096 658.025 615.793 657.851 616.375 657.735 616.84 657.56 618.06 657.154 619.164 656.805 620.326 656.515 621.953 656.05 623.58 655.644 625.439 654.889 625.788 654.714 626.136 654.598 626.485 654.482 629.216 653.32 631.889 652.217 634.329 653.146L634.852 653.378 634.503 653.843C633.748 654.889 633.224 655.818 632.702 656.747 631.772 658.49 630.843 660.174 628.577 662.149L627.646 662.962C624.451 665.75 618.234 664.472 612.772 663.369 608.705 662.556 605.103 661.801 603.824 662.904 603.185 663.485 603.65 665.169 604.289 667.377 605.568 672.139 607.544 679.167 601.035 684.743L597.027 688.228C596.388 688.751 596.097 688.867 595.691 689.042 595.516 689.1 595.341 689.158 595.109 689.274L594.877 689.39 594.644 689.274 593.25 688.345 592.96 688.17 593.134 687.822C593.599 686.834 594.354 685.731 595.225 684.569 596.155 683.349 597.143 682.014 597.724 680.678 598.828 678.238 599.002 676.496 599.235 674.114L599.351 673.069C599.583 670.571 598.654 665.111 596.504 661.51 596.097 660.813 595.633 660.232 595.109 659.71 594.702 659.303 594.238 658.954 593.773 658.664 590.868 661.162 587.73 663.833 584.535 660.116 584.128 659.651 584.128 659.477 584.07 659.245 584.012 659.071 583.954 658.896 583.488 658.258L583.256 657.967 583.546 657.677C587.091 654.482 588.718 651.868 589.066 649.138 589.415 646.409 588.485 643.562 586.975 639.903 586.801 639.497 586.568 638.974 586.393 638.451 585.174 635.489 584.535 633.863 582.152 630.319 581.746 629.739 581.049 628.925 580.293 627.996 578.027 625.324 575.064 621.839 576.574 620.62L577.795 619.574C578.666 618.819 580.583 618.529 582.443 618.645 584.302 618.761 586.219 619.284 587.091 620.271 588.718 622.13 588.543 625.034 588.369 627.996V627.822z" fill="#0061ae"/><path fill-rule="evenodd" clip-rule="evenodd" d="M202.507 628.054C200.067 627.125 197.684 626.196 196.523 627.009 195.128 627.996 196.348 630.494 197.801 633.34 199.951 637.638 202.507 642.691 197.917 645.828L196.232 646.989C194.024 648.5 190.131 646.06 186.122 643.62 183.275 641.878 180.311 640.077 178.045 639.671 176.128 639.38 174.734 640.135 174.269 643.04 173.92 645.247 174.269 649.138 174.792 652.507 174.908 653.146 175.024 653.785 175.14 654.424 175.256 655.005 175.372 655.586 175.489 656.108 175.78 657.502 176.128 658.548 176.477 659.535 176.826 660.581 177.29 661.568 177.987 662.962 179.092 665.402 179.847 666.099 180.66 666.854 181.241 667.435 181.939 668.074 182.868 669.409 183.391 670.165 183.623 670.978 183.565 671.733 183.507 672.488 183.1 673.243 182.345 673.766 181.416 674.405 179.789 673.708 178.22 672.546 176.767 671.5 175.314 670.048 174.675 669.061L170.551 662.962C169.214 660.987 169.33 655.063 169.504 650.01 169.562 647.57 169.621 645.363 169.504 643.911L167.181 643.098C164.276 645.073 159.685 647.919 155.386 649.719 150.795 651.636 146.496 652.275 144.578 649.487 143.533 647.977 143.881 647.164 144.404 646.118 144.462 645.944 144.578 645.77 144.636 645.595L144.753 645.305H145.043C147.251 645.305 148.587 645.247 149.982 644.898 151.376 644.608 152.887 644.027 155.328 642.982 157.012 642.285 159.22 641.297 161.022 640.135 162.59 639.09 163.869 637.928 163.985 636.767 160.15 634.792 157.709 634.327 153.933 633.63 153.468 633.572 153.003 633.456 152.423 633.34 151.26 633.107 149.517 632.933 147.716 632.701 144.636 632.352 141.267 631.946 139.697 631.365L139.407 631.249V630.958L139.465 629.506V629.216L139.755 629.1C143.997 627.473 153.991 629.564 161.951 631.249 167.239 632.352 171.538 633.282 172.293 632.759L172.643 632.527C173.34 632.062 173.572 631.772 173.746 631.539 174.037 631.191 174.211 630.958 175.14 630.61 176.245 630.261 176.767 630.378 177.174 630.494 177.464 630.552 177.639 630.61 178.045 630.319 178.569 629.971 178.976 629.506 179.208 628.984 179.382 628.519 179.44 628.054 179.15 627.648L178.917 627.299C178.278 626.312 176.303 626.602 174.153 626.893 171.538 627.241 168.691 627.59 167.413 625.731L166.948 625.034C166.367 624.105 166.774 622.594 167.587 621.084 168.342 619.69 169.504 618.296 170.376 617.715L172.061 616.554C172.701 616.147 177.406 615.857 181.706 615.624 185.251 615.45 188.562 615.218 188.853 615.102 189.956 614.347 190.422 613.127 190.422 611.907 190.422 611.675 190.422 611.442 190.364 611.21 190.306 610.978 190.306 610.803 190.189 610.571L190.072 610.281 190.364 610.106 192.745 608.48 193.036 608.306 193.269 608.538C195.012 610.165 200.822 614.056 205.006 615.45 205.819 615.682 206.516 615.857 207.155 615.915 207.736 615.973 208.201 615.857 208.492 615.682 209.189 615.218 209.828 614.172 210.525 613.127 211.223 612.023 211.92 610.862 212.791 610.339L213.14 610.106C213.896 609.584 215.057 609.584 216.103 609.932 217.149 610.281 218.137 610.92 218.718 611.791 219.822 613.417 219.822 615.682 219.24 617.715 218.659 619.748 217.44 621.607 216.045 622.536 215.464 622.885 215.115 622.943 214.709 622.943 214.36 622.943 213.954 623.001 213.256 623.466L212.268 624.163C211.92 624.395 211.629 625.615 211.397 626.776 211.165 627.938 210.874 629.042 210.409 629.448 208.55 630.726 205.529 629.564 202.623 628.461L202.507 628.054zM180.544 619.167C179.963 619.342 179.44 619.516 178.976 619.748 178.976 619.923 178.976 620.039 178.917 620.155 178.859 620.445 178.859 620.62 179.15 621.026 179.556 621.665 181.823 622.711 184.204 623.466 186.645 624.163 189.201 624.569 190.364 623.814 190.887 623.466 191.351 622.652 191.642 621.897 191.932 621.2 192.048 620.503 191.874 620.329 190.072 617.715 186.122 617.832 182.578 618.703 181.881 618.877 181.183 619.051 180.544 619.284V619.167zm11.911 15.044L192.223 633.863C191.816 633.224 191.177 632.527 190.48 632.062 189.898 631.655 189.259 631.481 188.853 631.772L187.459 632.701 188.272 635.257 188.388 635.547 188.098 635.721 185.715 637.348C185.134 637.754 185.251 638.044 185.309 638.509 185.367 638.625 185.367 638.8 185.425 638.974 186.586 639.38 188.737 639.903 190.48 639.729 190.829 639.729 191.177 639.671 191.467 639.555 191.816 639.439 192.106 639.322 192.339 639.206L193.036 638.742C193.559 638.393 193.618 637.638 193.501 636.825 193.327 635.895 192.92 634.908 192.455 634.269V634.211z" fill="#0061ae"/><path fill-rule="evenodd" clip-rule="evenodd" d="M659.022 527.919 660.358 528.848C660.649 529.022 660.939 529.138 661.231 529.08 661.521 529.022 661.811 528.848 661.986 528.558L662.218 528.209C662.741 527.454 658.674 518.219 656.001 512.643 655.478 511.539 655.013 510.552 654.606 509.855 654.258 509.158 653.967 508.693 653.851 508.519L653.619 508.228 653.851 507.938C655.014 506.544 657.395 505.324 659.255 505.208 659.661 505.208 660.01 505.208 660.358 505.266 660.707 505.324 661.056 505.44 661.347 505.673L662.044 506.137C663.38 507.067 663.496 509.681 663.612 512.817 663.787 516.941 663.961 521.878 667.099 524.085L667.447 524.318C668.958 525.363 670.411 524.724 671.921 524.027 673.025 523.504 674.187 522.982 675.523 522.982H675.756L675.873 523.214 675.989 523.388C676.163 523.737 676.279 523.911 676.86 524.318 677.267 524.608 677.441 524.55 677.731 524.55 677.847 524.55 677.964 524.55 678.138 524.492 678.254 524.143 678.428 523.737 678.545 523.33 679.01 521.936 679.591 520.368 680.288 519.264 682.031 516.767 683.309 516.244 684.53 515.779 685.169 515.547 685.75 515.315 686.389 514.734L686.621 514.501 686.911 514.676 690.223 517.057 690.515 517.231 690.398 517.522C689.875 518.858 689.352 521.53 688.887 523.911 688.423 526.176 688.074 528.151 687.726 528.674 687.435 529.08 687.144 529.138 686.795 529.138 686.621 529.138 686.447 529.08 686.214 529.08H685.924L685.808 528.79C685.575 528.209 685.575 527.396 685.575 526.525 685.575 525.247 685.575 523.795 684.878 523.33L684.18 522.865C684.064 522.807 684.006 522.749 683.89 522.749 683.425 522.633 682.903 522.982 682.38 523.62 681.799 524.376 681.217 525.479 680.694 526.641 679.591 529.255 678.836 532.333 678.662 533.146 678.428 534.482 678.08 535.76 677.731 536.98 676.976 539.651 676.279 542.207 676.976 544.53 677.092 544.472 677.208 544.414 677.383 544.124L677.731 543.427 681.217 536.399C681.509 535.818 681.857 535.586 682.264 535.237 682.438 535.121 682.612 535.005 682.845 534.773L683.077 534.54 683.367 534.714 685.401 536.108 685.692 536.283 685.575 536.573C685.285 537.444 685.227 539.071 685.808 540.29 685.924 540.523 686.04 540.755 686.156 540.929 686.272 541.104 686.447 541.278 686.621 541.394 687.726 542.149 688.539 542.091 689.584 542.033 691.328 541.917 693.536 541.684 698.184 544.879L701.031 541.394 702.658 539.071C703.529 537.851 704.633 537.096 705.854 536.747 707.015 536.341 708.236 536.283 709.34 536.283H709.514L709.63 536.399C710.385 537.212 711.257 538.664 711.373 539.884 711.373 540.174 711.373 540.407 711.373 540.639 711.315 540.871 711.257 541.104 711.083 541.336L709.223 544.008C708.991 544.356 708.062 544.821 706.957 545.402 705.447 546.157 703.645 547.086 703.181 547.783 701.495 550.165 704.284 552.604 706.783 554.695 707.712 555.508 708.584 556.263 709.223 556.96 710.385 558.296 713.058 561.839 713.93 564.569 714.104 565.15 714.22 565.673 714.22 566.137 714.22 566.66 714.104 567.125 713.872 567.473L709.223 574.211C708.701 574.908 708.12 575.14 707.48 575.024 706.899 574.966 706.318 574.618 705.737 574.269L705.331 574.037 705.563 573.63C708.178 569.622 709.34 566.428 708.817 563.582S706.202 558.18 702.309 555.45L700.159 555.682C699.811 557.193 698.358 561.142 697.138 564.105 696.848 564.743 696.615 565.324 696.383 565.789 696.092 566.428 695.801 566.951 695.569 567.241L695.336 567.59C694.872 568.228 694.639 568.403 694.291 568.693 694.175 568.809 694.001 568.925 693.768 569.1L693.362 569.506 693.128 568.984C692.896 568.577 692.78 568.286 692.606 568.054 692.257 567.415 692.083 567.067 692.025 566.66 692.025 566.196 692.199 565.673 692.606 564.627L692.838 563.988C693.187 563.059 693.362 562.304 693.536 561.549 693.71 560.736 693.942 559.981 694.291 558.993 694.814 557.657 696.151 553.766 696.267 551.268 696.267 550.803 696.267 550.397 696.208 550.106 696.15 549.874 696.033 549.642 695.917 549.526L695.569 549.293C694.465 548.538 693.07 548.712 691.792 548.945 690.863 549.061 689.991 549.235 689.178 549.061 688.364 548.887 687.435 548.306 686.563 547.725 685.285 546.854 684.006 545.983 683.367 546.912 682.903 547.609 682.786 548.306 682.728 549.061 682.612 550.048 682.438 551.152 681.508 552.604 681.043 553.243 680.753 553.359 680.288 553.475 680.114 553.533 679.939 553.591 679.707 553.65L679.417 553.766 679.242 553.533C679.01 553.301 678.894 553.127 678.778 552.953 678.603 552.662 678.428 552.488 677.905 552.139L677.208 551.675C676.976 551.559 676.802 551.442 676.628 551.442 676.511 551.442 676.453 551.442 676.337 551.559 675.465 552.778 675.233 558.47 675.116 561.839 675.058 562.711 675.058 563.466 675 563.93 674.942 564.976 675 566.021 675.058 567.067 675.116 568.112 675.175 569.1 675.058 570.087 674.942 571.888 674.71 572.817 674.478 573.863 674.303 574.618 674.129 575.431 674.013 576.592L673.955 576.883 673.722 576.999 670.933 577.986 670.643 578.103 670.469 577.87C667.854 574.966 668.609 572.933 669.597 570.203 670.12 568.867 670.643 567.299 670.875 565.382 671.05 563.814 671.514 558.819 671.166 555.682 671.108 555.102 670.992 554.579 670.875 554.172 670.759 553.824 670.643 553.591 670.469 553.475L670.12 553.243C670.062 553.185 669.714 553.185 669.132 553.069 667.331 552.836 663.845 552.372 660.474 550.048L660.068 549.99H659.952L659.836 549.874l-17.664-15.45L641.998 534.308V534.134C641.998 533.901 641.998 533.727 641.94 533.553 641.882 533.03 641.824 532.74 642.288 532.101L642.521 531.752C643.044 531.055 644.322 530.3 645.6 529.893 646.937 529.429 648.331 529.313 648.912 529.719 649.958 530.416 651.004 532.507 652.167 534.831 653.793 538.025 655.711 541.859 658.209 543.601L659.894 544.763C660.649 545.286 661.173 544.821 661.753 544.414 661.869 544.298 662.044 544.182 662.16 544.124L661.405 542.323 661.347 542.149 661.405 541.975 662.16 540 662.392 539.419 662.857 539.826C664.426 541.104 665.123 542.498 665.82 543.833 666.459 545.053 667.041 546.215 668.261 547.028L669.597 547.957C669.888 548.132 670.178 548.248 670.469 548.19 670.759 548.132 671.05 547.957 671.224 547.667L671.689 546.97C672.327 546.041 672.386 544.414 672.211 543.253 672.153 543.02 672.095 542.788 672.037 542.614 671.979 542.439 671.921 542.265 671.863 542.149 671.224 541.045 670.004 540.407 668.667 539.71 667.912 539.303 667.099 538.896 666.285 538.316L664.252 536.922C661.695 535.179 656.582 531.636 652.399 527.977 648.099 524.201 644.845 520.368 646.414 518.103L646.647 517.754C647.053 517.173 647.634 516.941 648.215 516.941S649.378 517.173 649.842 517.464C651.759 518.8 653.212 520.774 654.606 522.749 655.943 524.666 657.221 526.525 658.79 527.57L659.022 527.919zM669.248 529.255C669.132 529.255 668.958 529.429 668.783 529.719L668.551 530.068C668.028 530.823 668.609 531.926 669.016 532.682L669.132 532.856 670.295 533.32C670.585 533.088 670.759 532.972 670.875 532.914 670.992 532.856 671.108 532.798 671.34 532.449 671.63 532.043 671.572 531.578 671.398 531.113 671.166 530.591 670.759 530.126 670.236 529.777L669.888 529.545C669.597 529.371 669.422 529.255 669.248 529.255z" fill="#0061ae"/><path fill-rule="evenodd" clip-rule="evenodd" d="M390.76.0C605.625.0 780.922 175.179 780.922 389.971S605.683 780 390.76 780C175.895 780 .598633 604.821.598633 389.971.598633 175.179 175.837.0 390.76.0zm0 13.0106c207.719.0 377.088 169.3704 377.088 376.9604.0 207.648-169.427 376.96-377.088 376.96-207.718.0-377.0882-169.371-377.0882-376.96.0-207.648 169.3702-376.9604 377.0882-376.9604z" fill="#0061ae"/><path fill-rule="evenodd" clip-rule="evenodd" d="M353.517 182.73V320.736c-16.327 42.749-48.922 55.063-60.311 58.141V278.161H226.794L226.852 429.119s-5.578 89.332-51.653 122.033c-33.758-44.956-53.803-100.774-53.803-161.123.0-148.287 121.028-269.274 269.365-269.274 148.337.0 269.366 120.987 269.366 269.274C660.127 450.378 640.081 506.196 606.323 551.152 560.248 518.451 554.67 429.119 554.67 429.119L554.728 278.161H488.316V378.877C476.928 375.799 444.332 363.485 428.005 320.736V182.73H353.633 353.517zM229.641 605.808 229.583 605.75 229.525 605.692 228.015 604.53c18.476-16.379 73.558-74.462 73.326-162.923C313.31 442.594 329.636 439.632 350.611 427.144c22.371-13.301 34.049-34.559 40.092-54.482C396.746 392.585 408.424 413.843 430.794 427.144c20.975 12.488 37.302 15.45 49.271 14.463C479.775 530.068 534.915 588.151 553.391 604.53L551.939 605.692 551.881 605.75c-44.913 33.572-100.692 53.495-161.12 53.495C330.393 659.245 274.614 639.38 229.699 605.808H229.641z" fill="#0061ae"/><path fill-rule="evenodd" clip-rule="evenodd" d="M726.48 449.389C726.48 454.746 722.135 459.089 716.777 459.089 711.418 459.089 707.073 454.746 707.073 449.389 707.073 444.032 711.418 439.689 716.777 439.689 722.135 439.689 726.48 444.032 726.48 449.389z" fill="#0061ae"/><path fill-rule="evenodd" clip-rule="evenodd" d="M79.2121 449.389C79.2121 454.746 74.8678 459.089 69.5089 459.089 64.1499 459.089 59.8057 454.746 59.8057 449.389 59.8057 444.032 64.1499 439.689 69.5089 439.689 74.8678 439.689 79.2121 444.032 79.2121 449.389z" fill="#0061ae"/><path d="M68.1729 383.349 68.1148 377.018C70.2647 376.844 71.8916 376.205 72.9955 375.102 74.0995 374.056 74.7386 372.488 74.9129 370.571 75.0872 368.48 74.7967 366.854 73.9832 365.75 73.1698 364.589 72.2401 364.008 71.02 363.892 70.2647 363.833 69.6255 364.008 69.0445 364.414 68.4634 364.821 67.9406 365.518 67.4757 366.621 67.1271 367.377 66.5461 369.061 65.6165 371.675 64.4544 375.044 63.1762 377.425 61.7817 378.703 59.8642 380.503 57.5983 381.317 55.0998 381.084 53.473 380.968 51.9622 380.329 50.6259 379.284 49.2895 378.238 48.3017 376.786 47.7207 374.985 47.1397 373.185 46.9653 371.036 47.1397 368.596 47.4883 364.589 48.6503 361.626 50.5678 359.768 52.4851 357.909 54.9254 357.038 57.8888 357.212L57.5983 363.717C55.9133 363.833 54.6931 364.356 53.8796 365.169 53.0662 366.041 52.6014 367.377 52.4271 369.177 52.2527 371.036 52.4851 372.546 53.1824 373.708 53.5891 374.463 54.2282 374.811 55.0998 374.927 55.8552 374.985 56.5524 374.753 57.1334 374.114 57.8888 373.359 58.7602 371.442 59.8061 368.364 60.852 365.286 61.7817 363.02 62.7113 361.568S64.803 359.071 66.2556 358.316C67.7082 357.56 69.4513 357.328 71.4849 357.502 73.3441 357.677 74.9711 358.316 76.4817 359.477 77.9924 360.639 79.0382 362.207 79.6774 364.124 80.3165 366.041 80.4908 368.422 80.2584 371.21 79.9097 375.276 78.6896 378.296 76.656 380.271 74.6224 382.304 71.7754 383.349 68.1148 383.466L68.1729 383.349zM49.9286 343.853 61.6073 345.479C59.5737 343.214 58.7603 340.658 59.167 337.928 59.3413 336.534 59.8061 335.315 60.5033 334.211 61.2006 333.166 61.9559 332.41 62.8856 331.946 63.7572 331.481 64.7449 331.249 65.7326 331.133 66.7204 331.075 68.2892 331.191 70.3809 331.481L83.9189 333.398 83.0473 339.497l-12.2016-1.685C68.4054 337.464 66.8947 337.348 66.1975 337.522 65.5002 337.696 64.9192 337.986 64.4544 338.509 63.9895 339.032 63.699 339.729 63.5828 340.6 63.4667 341.646 63.5828 342.575 63.9314 343.388 64.28 344.259 64.9773 344.956 65.907 345.479 66.8366 346.002 68.2892 346.35 70.2065 346.641L81.7691 348.267 80.8975 354.366 49.0571 349.893 49.9286 343.795V343.853zm20.2779-22.885L67.8825 326.137C65.8489 324.976 64.5125 323.524 63.8153 321.781 63.118 320.039 63.1762 317.715 63.8734 314.753 64.5125 312.081 65.3259 310.165 66.3137 309.003 67.2433 307.841 68.2892 307.144 69.3932 306.854 70.4971 306.563 72.3564 306.738 74.9711 307.377L81.9434 309.177C83.9189 309.7 85.4295 309.932 86.4174 309.99 87.4051 310.048 88.5091 309.932 89.7292 309.7L88.2766 315.624C87.8118 315.682 87.2307 315.741 86.3592 315.741 85.9525 315.741 85.7201 315.741 85.6039 315.799 86.3592 317.076 86.824 318.354 86.9983 319.632 87.2307 320.91 87.1146 322.246 86.824 323.524 86.243 325.847 85.139 327.531 83.5703 328.577 82.0015 329.622 80.2003 329.855 78.2829 329.39 77.0047 329.1 75.9588 328.461 75.0872 327.648 74.2157 326.776 73.6927 325.731 73.4022 324.511 73.1698 323.291 73.0536 321.549 73.1698 319.4 73.3441 316.496 73.3441 314.405 73.1698 313.243L72.5888 313.069C71.4268 312.778 70.5552 312.836 69.916 313.301 69.2769 313.766 68.7541 314.753 68.4054 316.321 68.1148 317.367 68.1148 318.296 68.4054 318.993 68.6959 319.69 69.2769 320.329 70.2647 320.968H70.2065zM77.0628 314.172C77.1208 314.985 77.1208 316.263 77.0628 318.064 77.0047 319.806 77.0628 320.968 77.2952 321.607 77.6438 322.536 78.2829 323.059 79.0964 323.291 79.9097 323.524 80.7232 323.349 81.4786 322.885 82.2339 322.42 82.7568 321.723 82.9893 320.736 83.2798 319.632 83.1635 318.529 82.6987 317.367 82.3501 316.496 81.8272 315.857 81.0718 315.45 80.607 315.16 79.6774 314.869 78.2248 314.463L77.0047 314.172H77.0628zm19.5806-27.241L94.6098 292.74l-11.2139-3.892C81.0137 288.035 79.445 287.628 78.6315 287.628 77.8761 287.628 77.1789 287.861 76.5979 288.267 76.0169 288.674 75.6102 289.313 75.3197 290.068 74.9711 291.055 74.9129 292.101 75.2034 293.088 75.4939 294.076 76.0169 294.889 76.8303 295.47 77.6438 296.108 79.2706 296.805 81.7109 297.677L91.7046 301.104 89.6711 306.912 67.6501 299.303 69.5093 293.901 72.7631 295.005C70.9619 292.217 70.4971 289.371 71.5429 286.467 72.0078 285.189 72.6469 284.085 73.4604 283.156 74.2738 282.285 75.1453 281.646 76.0749 281.355 77.0047 281.065 77.9343 280.949 78.922 281.065S81.2462 281.53 82.9312 282.11L96.6434 286.815V286.931zm9.2966-23.93L103.79 268.287 100.594 267.009C101.466 268.403 101.989 269.797 102.105 271.249 102.222 272.701 102.047 274.037 101.524 275.257 100.536 277.754 98.677 279.439 95.9462 280.426 93.2154 281.355 90.0778 281.123 86.5335 279.729 82.873 278.277 80.4327 276.244 79.2125 273.746 77.9924 271.249 77.9343 268.693 78.9801 266.079 79.9679 263.698 81.8272 262.014 84.4999 261.026L73.7508 256.67 76.0749 250.978l29.8071 12.023H105.94zM88.5091 273.688C90.8331 274.618 92.6344 274.966 93.9126 274.734 95.7719 274.443 97.0502 273.456 97.6893 271.772 98.2123 270.436 98.096 269.1 97.3407 267.706 96.5853 266.312 95.1327 265.208 92.8667 264.279 90.3683 263.291 88.3928 263.001 86.9402 263.466 85.4876 263.93 84.4999 264.86 83.9189 266.254 83.3959 267.59 83.454 268.984 84.1513 270.319 84.8485 271.655 86.3011 272.759 88.4509 273.63L88.5091 273.688zm7.9019-19.341C94.6098 253.359 93.0991 252.023 91.879 250.223 90.6588 248.422 90.0197 246.505 90.0197 244.356 90.0197 242.265 90.5426 240.174 91.5885 238.141 93.2154 235.063 95.5976 233.03 98.677 232.101 101.757 231.171 104.836 231.578 107.916 233.204 110.995 234.831 113.086 237.212 114.075 240.348 115.062 243.427 114.714 246.505 113.086 249.584 112.099 251.5 110.705 253.011 108.961 254.288 107.218 255.566 105.243 256.205 103.151 256.205S98.7933 255.624 96.411 254.347zM99.6648 248.945C101.699 250.048 103.499 250.397 105.127 249.99 106.695 249.584 107.916 248.712 108.671 247.26 109.426 245.866 109.542 244.356 108.961 242.846 108.38 241.278 107.102 240 105.011 238.896 102.977 237.851 101.175 237.502 99.6067 237.851 98.0379 238.257 96.8178 239.129 96.0624 240.581 95.3071 241.975 95.1908 243.485 95.7719 245.053 96.3529 246.621 97.6312 247.899 99.6648 249.003V248.945zm31.4342-30.726L127.728 223.388l-9.993-6.447C115.643 215.547 114.191 214.792 113.436 214.618 112.68 214.443 111.983 214.501 111.286 214.734 110.647 215.024 110.065 215.489 109.6 216.186 109.019 217.057 108.729 218.045 108.787 219.09 108.845 220.136 109.136 221.007 109.774 221.82 110.414 222.633 111.808 223.737 114.017 225.131l8.831 5.75L119.478 236.05 99.9554 223.388 103.093 218.567 105.94 220.426C104.836 217.289 105.127 214.443 106.811 211.83 107.567 210.668 108.439 209.797 109.484 209.1 110.531 208.403 111.518 208.054 112.447 207.996 113.378 207.938 114.365 208.054 115.294 208.403 116.224 208.751 117.444 209.39 118.955 210.378l12.144 7.899V218.219zM134.062 215.895 138.884 210.726C139.639 211.133 140.221 211.249 140.744 211.075 141.441 210.842 142.138 210.261 142.894 209.216 143.823 207.938 144.346 206.776 144.462 205.847 144.52 205.208 144.346 204.569 143.939 203.93 143.649 203.466 142.952 202.827 141.789 202.014L139.058 200.039C139.989 203.001 139.639 205.615 138.013 207.88 136.153 210.436 133.655 211.655 130.459 211.539 127.902 211.481 125.405 210.494 122.906 208.693 119.769 206.37 117.909 203.872 117.328 201.142 116.747 198.412 117.328 195.915 118.955 193.65 120.64 191.326 123.08 190.165 126.218 190.106L123.603 188.19 126.973 183.543l16.908 12.256C146.089 197.425 147.658 198.819 148.471 199.981 149.285 201.142 149.808 202.304 149.924 203.408 150.04 204.511 149.924 205.789 149.459 207.125 148.995 208.461 148.18 210.029 146.961 211.713 144.636 214.908 142.428 216.767 140.395 217.289 138.303 217.812 136.444 217.464 134.759 216.244 134.585 216.128 134.411 215.954 134.178 215.779L134.062 215.895zM126.218 203.408C128.194 204.86 129.936 205.557 131.447 205.44 132.958 205.324 134.12 204.743 134.933 203.582 135.805 202.362 136.095 200.968 135.747 199.458 135.398 197.948 134.295 196.496 132.435 195.102 130.459 193.708 128.717 193.069 127.205 193.185 125.695 193.301 124.474 193.94 123.545 195.218 122.674 196.438 122.442 197.715 122.79 199.167 123.139 200.62 124.3 202.014 126.218 203.408zM134.527 160.6 139.058 155.954l12.551 12.081C153.584 169.952 154.921 171.171 155.618 171.578 156.78 172.275 158.001 172.565 159.278 172.333 160.557 172.159 161.835 171.404 163.113 170.068 164.392 168.732 165.089 167.512 165.205 166.292 165.321 165.073 165.031 164.027 164.392 163.156 163.753 162.227 162.474 160.949 160.673 159.148L147.89 146.776 152.423 142.13l12.143 11.733C167.355 156.534 169.214 158.567 170.086 159.903 171.015 161.239 171.48 162.633 171.654 164.085 171.77 165.537 171.538 167.047 170.899 168.616 170.26 170.184 169.039 171.926 167.297 173.727 165.147 175.934 163.287 177.386 161.661 178.025 160.033 178.664 158.523 178.954 157.07 178.838 155.618 178.722 154.339 178.316 153.236 177.677 151.609 176.689 149.517 174.947 146.903 172.449l-12.318-11.907L134.527 160.6zm60.717-13.01L190.538 151.539 182.926 142.42C181.3 140.503 180.137 139.342 179.498 138.935 178.801 138.529 178.104 138.354 177.406 138.47 176.709 138.529 176.012 138.819 175.373 139.4 174.559 140.097 173.978 140.91 173.746 141.897 173.456 142.885 173.514 143.872 173.92 144.802 174.327 145.731 175.315 147.183 177 149.216L183.797 157.289 179.092 161.239l-14.991-17.831 4.358-3.66 2.208 2.614C170.551 139.051 171.654 136.379 174.037 134.405 175.082 133.533 176.187 132.894 177.348 132.546 178.511 132.197 179.556 132.139 180.486 132.372 181.416 132.604 182.287 133.011 183.1 133.591 183.914 134.172 184.844 135.16 186.006 136.554L195.302 147.648 195.244 147.59zM182.52 124.298 179.034 119.826l4.88-3.776L187.401 120.523 182.52 124.298zm16.269 20.852-14.352-18.354L189.317 123.02l14.352 18.355L198.789 145.15zm13.712-10.281-21.034-13.707L196.755 117.444l10.4 7.203L210.468 127.144C210.176 126.099 209.944 125.46 209.828 125.169 209.595 124.53 209.421 123.833 209.247 123.195L206.051 110.939 211.223 107.28 216.975 131.675 212.443 134.869H212.501zm21.731-22.536L240.1 110.242C240.507 112.623 240.216 114.714 239.344 116.573 238.415 118.432 236.846 120 234.638 121.22 231.094 123.195 227.84 123.485 224.876 122.091 222.495 120.987 220.519 119.013 218.95 116.167c-1.85899999999998-3.369-2.44-6.506-1.743-9.41C217.904 103.853 219.59 101.704 222.321 100.194 225.342 98.5091 228.305 98.2187 231.152 99.2061 233.999 100.252 236.555 102.865 238.763 106.989l-13.479 7.493C226.213 116.05 227.317 117.038 228.654 117.502 229.99 117.909 231.268 117.793 232.488 117.096 233.36 116.631 233.94 115.992 234.232 115.237 234.522 114.482 234.58 113.495 234.29 112.275L234.232 112.333zM231.501 106.699C230.571 105.131 229.525 104.201 228.305 103.795 227.085 103.388 225.923 103.504 224.818 104.143 223.657 104.782 222.902 105.77 222.611 107.047 222.321 108.325 222.611 109.719 223.424 111.171L231.501 106.699zm19.87 4.995L245.852 114.366 235.626 93.4558l5.113-2.4975L242.191 93.9205C242.365 92.0619 242.714 90.784 243.238 89.9709 243.702 89.1577 244.399 88.5769 245.329 88.1122 246.607 87.4733 247.943 87.2409 249.513 87.3571L250.152 92.9912C248.932 92.8169 247.943 92.9912 247.13 93.3397 246.375 93.7463 245.794 94.269 245.445 94.966 245.096 95.663 245.038 96.6504 245.329 97.9283 245.561 99.2061 246.549 101.588 248.292 105.189l3.137 6.447L251.371 111.694zM255.671 101.994 260.959 98.6253C261.714 99.6127 262.527 100.252 263.516 100.484 264.503 100.716 265.665 100.542 267.002 99.9612 268.454 99.3223 269.442 98.5672 269.907 97.6959 270.255 97.1151 270.255 96.4762 269.965 95.8373 269.791 95.4307 269.5 95.1403 269.093 94.966 268.686 94.8499 267.931 94.8499 266.886 95.0822 261.888 96.1277 258.635 96.4762 257.007 96.1858 254.8 95.7792 253.289 94.5594 252.36 92.5265 251.546 90.6679 251.546 88.8092 252.476 86.8924 253.347 84.9757 255.323 83.3494 258.402 82.0134 261.308 80.7356 263.69 80.2129 265.549 80.5614 267.408 80.9099 268.977 81.8392 270.372 83.4655L265.491 86.7763C264.91 86.0793 264.155 85.6146 263.34 85.4404 262.527 85.2661 261.482 85.4404 260.319 85.9631 258.809 86.602 257.88 87.299 257.414 87.996 257.124 88.4607 257.065 88.9834 257.298 89.4481 257.472 89.8547 257.822 90.087 258.286 90.2032 258.983 90.3774 260.959 90.087 264.271 89.4481 267.583 88.8092 270.023 88.693 271.649 89.1577 273.277 89.6224 274.496 90.784 275.253 92.5265 276.124 94.5013 276.066 96.5343 275.019 98.6253 274.032 100.774 271.94 102.517 268.744 103.969 265.839 105.247 263.282 105.712 261.075 105.247 258.867 104.84 257.065 103.737 255.613 101.936L255.671 101.994zm17.49-29.0996L271.417 67.4926 277.285 65.5759 279.029 70.9776 273.161 72.8944zM281.353 98.0444 274.148 75.9147 280.016 73.998 287.222 96.1277 281.353 98.0444zm13.131-28.5769L295.995 74.1141 291.986 75.392 294.891 84.3368C295.471 86.1374 295.879 87.1829 296.053 87.4733 296.228 87.7637 296.46 87.9379 296.808 88.0541 297.157 88.1703 297.505 88.1703 297.912 87.996 298.435 87.8218 299.191 87.3571 300.12 86.6601l1.976 4.3563C300.933 92.0619 299.481 92.8169 297.738 93.3978 296.692 93.7463 295.646 93.8624 294.716 93.8044 293.729 93.7463 292.974 93.4558 292.392 93.0493 291.811 92.6427 291.289 91.9457 290.824 91.0164 290.475 90.3774 289.953 89.0415 289.313 86.9505L286.175 77.3087 283.502 78.18 281.992 73.5333 284.665 72.662 283.212 68.2477 287.977 62.9041 290.533 70.7453 294.542 69.4675H294.484zM296.111 68.1316 302.503 66.7956 311.392 81.7811 313.251 64.4723 319.469 63.1364 316.098 86.7763 315.517 91.0744C315.285 92.5265 314.994 93.6301 314.646 94.4433 314.297 95.2564 313.891 95.9534 313.367 96.4762 312.844 97.057 312.147 97.5217 311.276 97.9863 310.405 98.3929 309.416 98.7414 308.255 99.0318 307.092 99.2642 305.93 99.3803 304.769 99.3803L303.2 94.7918C304.187 94.7918 305.059 94.6756 305.814 94.5013 307.208 94.2109 308.139 93.572 308.661 92.5846 309.126 91.5972 309.475 90.4936 309.533 89.0996l-13.538-20.968H296.111zM337.539 70.8034C337.306 68.7705 337.539 66.7376 338.294 64.7046 339.049 62.6717 340.328 61.0454 342.012 59.8256 343.698 58.6059 345.731 57.8508 347.997 57.5604 351.483 57.1538 354.504 57.9089 357.003 59.8837 359.501 61.8586 361.012 64.5885 361.419 68.0735 361.826 71.5585 361.07 74.5788 359.095 77.1925 357.119 79.7482 354.446 81.2584 351.018 81.665 348.869 81.8973 346.835 81.723 344.801 80.968 342.767 80.2709 341.141 79.0512 339.863 77.3087 338.642 75.5662 337.887 73.4171 337.539 70.7453V70.8034zM343.872 70.3387C344.162 72.604 344.917 74.3465 346.138 75.392 347.358 76.4955 348.811 76.9021 350.379 76.7279 351.948 76.5536 353.226 75.7405 354.156 74.4045 355.086 73.0686 355.434 71.21 355.144 68.8866 354.854 66.6214 354.098 64.937 352.878 63.8915 351.658 62.7879 350.263 62.3813 348.636 62.5556 347.067 62.7298 345.79 63.543 344.859 64.8789 343.93 66.2148 343.581 68.0735 343.872 70.3387zm17.837-13.8819L365.137 56.2245 365.021 54.482C364.905 52.5072 365.021 51.0551 365.37 50.0677 365.718 49.0802 366.416 48.209 367.52 47.5701 368.623 46.8731 369.96 46.4665 371.703 46.3503 373.446 46.2342 375.19 46.3503 376.874 46.7569L376.351 51.1132C375.364 50.9389 374.434 50.8808 373.504 50.9389 372.633 50.997 371.993 51.2293 371.645 51.694 371.296 52.1587 371.18 52.9718 371.238 54.1335L371.354 55.7598 375.945 55.4113 376.293 60.2322 371.703 60.5807 372.982 78.9931 366.823 79.3997l-1.279-18.4124L362.116 61.2196 361.768 56.3987 361.709 56.4568zM393.55 78.877 394.131 46.7569 416.151 47.1635 416.035 52.6233 400.464 52.3329 400.348 59.9418 413.77 60.1741 413.654 65.634 400.232 65.4016 399.999 79.0512 393.492 78.935 393.55 78.877zm27.308-25.3243L421.265 47.8605 427.424 48.2671 427.017 53.9592 420.858 53.5527zM418.998 79.9225 420.626 56.6892 426.785 57.0957 425.157 80.329 418.998 79.9225zM450.433 84.3949 444.39 83.3494 446.482 71.6746C446.888 69.1771 447.063 67.5507 446.947 66.7956 446.83 66.0406 446.482 65.4016 445.959 64.8789 445.435 64.3561 444.796 64.0657 443.983 63.8915 442.938 63.7172 441.949 63.8334 441.02 64.24 440.091 64.7046 439.393 65.3436 438.928 66.2148 438.463 67.0861 437.999 68.8286 437.534 71.3842L435.732 81.7811 429.69 80.7356 433.757 57.7927 439.393 58.7802 438.812 62.149C441.252 59.8837 444.041 59.0706 447.063 59.5933 448.399 59.8256 449.561 60.2903 450.607 60.9873 451.653 61.6843 452.35 62.4394 452.815 63.2526 453.222 64.1238 453.512 64.9951 453.57 65.9825 453.628 66.9699 453.512 68.3639 453.163 70.1064L450.665 84.3368 450.433 84.3949zm12.085-13.94L457.23 68.3058C458.335 66.2148 459.729 64.8208 461.414 64.0657 463.157 63.3106 465.481 63.2526 468.444 63.8915 471.117 64.4723 473.093 65.2274 474.255 66.0986 475.417 67.028 476.172 68.0154 476.521 69.119 476.869 70.2225 476.753 72.0812 476.172 74.695L474.603 81.723C474.197 83.6979 473.964 85.208 473.964 86.1954 473.964 87.1829 474.08 88.2864 474.371 89.5062L468.386 88.2284C468.328 87.7637 468.27 87.1829 468.212 86.3116 468.212 85.905 468.154 85.6727 468.154 85.5565 466.934 86.3697 465.655 86.8344 464.378 87.1248 463.099 87.3571 461.821 87.3571 460.484 87.0667 458.161 86.5439 456.417 85.5565 455.372 83.9883 454.267 82.42 453.977 80.6775 454.383 78.7027 454.675 77.4249 455.197 76.3213 456.011 75.45 456.824 74.5788 457.87 73.998 459.09 73.7075 460.31 73.4171 461.995 73.301 464.203 73.301 467.108 73.359 469.199 73.301 470.362 73.0686L470.478 72.4878C470.711 71.3261 470.594 70.4549 470.13 69.816 469.665 69.2351 468.619 68.7124 467.05 68.3639 465.946 68.1316 465.075 68.1896 464.378 68.4801 463.681 68.7705 463.041 69.4094 462.46 70.3968L462.518 70.4549zM469.549 77.0764C468.735 77.1925 467.457 77.1925 465.655 77.1925 463.913 77.1925 462.75 77.3087 462.169 77.541 461.24 77.9476 460.717 78.5285 460.543 79.3997 460.368 80.2709 460.543 81.026 461.008 81.7811 461.53 82.5362 462.227 83.0009 463.215 83.2332 464.319 83.4655 465.423 83.3494 466.528 82.8266 467.399 82.42 467.98 81.8973 468.386 81.1422 468.677 80.6775 468.967 79.6901 469.258 78.238L469.491 77.0183 469.549 77.0764zM497.38 97.1732 491.511 95.2564l3.661-11.3262C495.928 81.5488 496.334 79.9805 496.276 79.1674 496.276 78.4123 496.044 77.7153 495.578 77.1345 495.114 76.5536 494.533 76.147 493.72 75.9147 492.673 75.5662 491.686 75.5662 490.698 75.8566S488.897 76.7279 488.316 77.541C487.735 78.3542 487.038 79.9805 486.224 82.4781L482.97 92.5265 477.102 90.6098 484.307 68.4801 489.768 70.2225 488.722 73.4752C491.453 71.6165 494.3 71.1519 497.264 72.0812 498.541 72.4878 499.646 73.1267 500.575 73.9399 501.505 74.753 502.087 75.6243 502.435 76.4955 502.725 77.4249 502.842 78.3542 502.784 79.3416 502.725 80.329 502.377 81.665 501.854 83.4074L497.38 97.1732zm28.877-5.8664L520.215 90.1451C520.447 88.9254 520.331 87.9379 519.924 87.0667 519.459 86.2535 518.703 85.6146 517.6 85.208 516.147 84.6272 514.811 84.6853 513.591 85.3823 512.37 86.0212 511.267 87.5314 510.394 89.8547 509.407 92.4104 509.117 94.4433 509.581 95.8373 510.046 97.2313 510.976 98.2187 512.486 98.7414 513.591 99.148 514.578 99.2061 515.508 98.8576 516.438 98.5091 517.367 97.6378 518.239 96.2438L523.526 99.3803C521.957 101.762 520.04 103.272 517.89 103.969 515.74 104.666 513.242 104.434 510.453 103.388 507.257 102.168 505.108 100.194 504.003 97.4636 502.9 94.7337 503.016 91.5972 504.352 88.0541 505.747 84.4529 507.781 82.0134 510.394 80.7937 513.067 79.5159 516.031 79.5159 519.226 80.7356 521.899 81.723 523.759 83.117 524.862 84.8595 525.967 86.602 526.431 88.7511 526.199 91.3649L526.257 91.3068zM537.994 107.222 542.991 110.939C541.248 112.565 539.388 113.553 537.297 113.843 535.263 114.134 533.055 113.669 530.789 112.507 527.187 110.649 525.095 108.151 524.572 104.898 524.165 102.343 524.688 99.5546 526.141 96.7085 527.884 93.2816 530.15 91.0164 532.939 90.0289 535.728 88.9834 538.517 89.1577 541.248 90.6098 544.327 92.178 546.245 94.4433 547 97.4055 547.755 100.368 547 103.911 544.792 108.093L531.021 101.065C530.208 102.691 530.034 104.201 530.44 105.537 530.847 106.873 531.661 107.861 532.939 108.5 533.81 108.964 534.624 109.08 535.437 108.906 536.25 108.732 537.123 108.209 537.936 107.338L537.994 107.222zM541.132 101.82C541.887 100.194 542.119 98.7995 541.77 97.5798 541.422 96.36 540.667 95.4307 539.562 94.9079 538.342 94.269 537.181 94.2109 535.902 94.7337 534.682 95.1983 533.694 96.1858 532.939 97.6959L541.132 101.878V101.82zM567.917 114.598 563.734 110.765C565.476 109.197 567.278 108.325 569.137 108.267 570.996 108.151 573.204 108.906 575.819 110.532 578.143 111.985 579.712 113.379 580.525 114.598 581.339 115.876 581.688 117.038 581.63 118.199 581.571 119.361 580.815 121.045 579.421 123.311L575.529 129.351C574.424 131.094 573.727 132.43 573.379 133.359 573.03 134.288 572.798 135.392 572.682 136.612L567.51 133.359C567.568 132.953 567.743 132.314 567.975 131.5 568.091 131.152 568.149 130.92 568.149 130.745 566.697 131.036 565.36 131.094 564.082 130.92 562.804 130.745 561.584 130.281 560.421 129.526 558.388 128.248 557.109 126.68 556.645 124.879 556.18 123.02 556.47 121.278 557.517 119.593 558.214 118.49 559.085 117.677 560.189 117.096 561.293 116.573 562.455 116.341 563.676 116.515 564.896 116.631 566.581 117.096 568.614 117.909 571.345 118.954 573.321 119.593 574.482 119.768L574.831 119.245C575.471 118.257 575.645 117.386 575.413 116.631 575.179 115.876 574.366 115.121 573.03 114.25 572.1 113.669 571.287 113.379 570.532 113.437 569.777 113.495 568.962 113.843 568.091 114.598H567.917zM572.275 123.195C571.461 123.02 570.241 122.614 568.614 122.033 566.988 121.452 565.825 121.162 565.186 121.162 564.199 121.22 563.501 121.626 563.036 122.381 562.571 123.136 562.455 123.892 562.687 124.763 562.92 125.634 563.442 126.331 564.257 126.854 565.186 127.435 566.29 127.667 567.51 127.609 568.44 127.551 569.195 127.202 569.835 126.68 570.241 126.331 570.822 125.518 571.635 124.24L572.275 123.195zm19.174 28.577L586.568 147.996 593.889 138.645C595.457 136.67 596.33 135.276 596.562 134.579 596.794 133.824 596.794 133.127 596.62 132.43 596.388 131.733 595.981 131.152 595.341 130.629 594.47 129.99 593.541 129.584 592.552 129.526 591.507 129.468 590.577 129.7 589.763 130.281 588.95 130.862 587.672 132.139 586.103 134.23L579.596 142.536 574.715 138.761l14.351-18.354L593.599 123.95 591.507 126.621C594.76 125.808 597.549 126.331 599.99 128.248 601.035 129.061 601.908 130.048 602.488 131.094 603.069 132.197 603.36 133.185 603.36 134.172 603.36 135.102 603.127 136.031 602.721 136.96 602.314 137.89 601.558 138.993 600.454 140.445L591.565 151.83 591.449 151.772zm18.941 17.425L606.207 165.305 608.531 162.807C606.904 163.156 605.452 163.098 604.057 162.691 602.663 162.285 601.5 161.646 600.513 160.716 598.537 158.916 597.607 156.534 597.665 153.688 597.724 150.842 599.119 147.938 601.733 145.15 604.405 142.246 607.136 140.678 609.925 140.445 612.656 140.213 615.096 141.084 617.188 143.001 619.105 144.743 619.977 147.125 619.919 149.971L627.821 141.491 632.353 145.673l-21.905 23.524H610.39zM606.671 149.1C604.987 150.9 603.999 152.469 603.766 153.746 603.418 155.605 603.882 157.115 605.161 158.335 606.207 159.322 607.485 159.671 609.054 159.497 610.623 159.264 612.191 158.335 613.819 156.534 615.619 154.56 616.608 152.817 616.724 151.307 616.84 149.797 616.316 148.519 615.213 147.473 614.167 146.486 612.83 146.079 611.32 146.254 609.809 146.428 608.241 147.357 606.671 149.042V149.1zM623.289 182.73l24.287-21.084 15.629 18.005L659.081 183.195l-11.389-13.069L642.288 174.773l10.576 12.197L648.796 190.513 638.222 178.316 631.598 184.066 643.393 197.599 639.325 201.142 623.289 182.672V182.73zm42.705 28.461L661.521 206.893C662.392 206.021 662.857 205.092 662.915 204.163 662.973 203.233 662.683 202.304 661.986 201.317 661.056 200.097 659.952 199.4 658.558 199.284 657.163 199.167 655.478 199.864 653.444 201.317 651.236 202.943 649.9 204.453 649.552 205.905 649.203 207.299 649.436 208.635 650.365 209.913 651.062 210.842 651.876 211.423 652.864 211.655 653.851 211.888 655.072 211.597 656.582 210.9L659.313 216.418C656.698 217.522 654.258 217.812 652.108 217.173 649.9 216.592 647.925 215.024 646.182 212.643 644.206 209.913 643.451 207.067 643.974 204.163 644.497 201.258 646.356 198.703 649.436 196.438 652.515 194.172 655.594 193.243 658.5 193.65 661.463 194.056 663.903 195.624 665.936 198.412 667.622 200.736 668.435 202.885 668.435 204.976S667.622 209.1 666.052 211.191H665.994zm-2.149 5.053C665.588 215.198 667.564 214.676 669.772 214.56 671.921 214.501 673.897 214.966 675.698 216.07 677.499 217.173 678.952 218.683 680.114 220.658 681.857 223.679 682.322 226.757 681.451 229.894 680.578 232.972 678.662 235.411 675.64 237.154 672.619 238.896 669.481 239.361 666.343 238.606 663.205 237.793 660.766 235.876 659.022 232.914 657.977 231.055 657.337 229.08 657.221 226.931S657.569 222.807 658.674 221.007C659.777 219.206 661.521 217.638 663.845 216.302V216.244zM666.692 221.878C664.717 223.04 663.438 224.376 662.915 225.944 662.392 227.512 662.566 228.964 663.322 230.358 664.136 231.752 665.355 232.623 666.925 232.914 668.551 233.262 670.353 232.856 672.387 231.636 674.361 230.474 675.582 229.138 676.105 227.57 676.628 226.002 676.453 224.55 675.698 223.156 674.884 221.762 673.664 220.891 672.095 220.542 670.469 220.194 668.667 220.6 666.692 221.762V221.878zm9.471 42.517L673.374 258.877 683.948 253.475C686.214 252.314 687.551 251.5 688.132 250.92 688.655 250.339 689.003 249.7 689.061 249.003 689.178 248.306 689.003 247.551 688.655 246.854 688.19 245.924 687.493 245.169 686.563 244.705 685.634 244.24 684.704 244.066 683.716 244.182 682.728 244.356 681.043 244.995 678.72 246.215L669.306 250.978 666.518 245.518 687.261 234.947 689.875 240.058 686.853 241.626C690.108 242.265 692.489 243.95 693.884 246.68 694.523 247.899 694.872 249.119 694.93 250.339 694.988 251.559 694.814 252.604 694.407 253.475 694.001 254.347 693.42 255.102 692.664 255.741 691.909 256.379 690.747 257.135 689.119 257.948L676.221 264.511 676.163 264.395zM688.074 262.711C689.992 261.955 692.025 261.665 694.175 261.897 696.325 262.13 698.242 262.885 699.869 264.221 701.495 265.557 702.716 267.299 703.587 269.39 704.924 272.643 704.924 275.779 703.645 278.683 702.367 281.646 700.101 283.737 696.848 285.073 693.594 286.409 690.456 286.409 687.435 285.189 684.414 283.969 682.264 281.704 680.985 278.509 680.172 276.534 679.881 274.443 680.056 272.294 680.23 270.145 680.985 268.228 682.322 266.602 683.658 264.976 685.575 263.64 688.074 262.652V262.711zM690.108 268.693C687.958 269.564 686.505 270.726 685.808 272.236 685.053 273.688 684.995 275.198 685.634 276.709 686.214 278.219 687.319 279.206 688.829 279.787 690.398 280.368 692.257 280.194 694.407 279.322 696.499 278.451 697.951 277.289 698.648 275.837 699.404 274.385 699.462 272.875 698.823 271.423 698.242 269.913 697.138 268.925 695.569 268.345 694.001 267.764 692.141 267.938 690.05 268.809L690.108 268.693zm19.173 16.902L710.851 291.055 707.771 291.926C710.734 293.204 712.535 295.179 713.348 297.851 713.756 299.303 713.814 300.639 713.524 301.859 713.232 303.078 712.593 304.182 711.606 305.227 713.058 305.866 714.279 306.68 715.208 307.609 716.137 308.596 716.777 309.7 717.126 310.978 717.59 312.604 717.648 314.114 717.3 315.45 716.951 316.786 716.195 317.89 715.092 318.819 714.279 319.516 712.767 320.155 710.617 320.736L696.325 324.86 694.639 318.935 707.422 315.276C709.63 314.637 711.025 313.998 711.548 313.417 712.245 312.604 712.419 311.675 712.07 310.513 711.838 309.7 711.373 309.003 710.617 308.364 709.92 307.783 708.991 307.493 707.945 307.435 706.899 307.377 705.273 307.667 703.181 308.248L692.431 311.326 690.747 305.402 703.006 301.859C705.215 301.22 706.55 300.755 707.131 300.348 707.713 299.942 708.062 299.477 708.294 298.954 708.468 298.432 708.468 297.793 708.236 297.038 707.945 296.108 707.48 295.353 706.783 294.772 706.086 294.192 705.215 293.843 704.226 293.785 703.181 293.727 701.611 294.017 699.462 294.656l-10.865 3.137L686.911 291.868 709.281 285.479V285.595zm12.725 38.684L727.584 323.175 728.746 329.216 723.168 330.319 722.006 324.279zm-25.972 5.053L718.868 324.86 720.031 330.9 697.196 335.373 696.034 329.332z" fill="#0061ae"/><path d="M717.009 357.502 715.092 351.635C716.253 351.287 717.125 350.707 717.59 349.893 718.113 349.08 718.287 348.093 718.113 346.989 717.881 345.479 717.183 344.318 716.021 343.562 714.859 342.807 713 342.575 710.559 342.924 707.828 343.33 705.97 344.027 704.981 345.131 703.994 346.234 703.587 347.511 703.82 349.079 703.994 350.241 704.458 351.112 705.214 351.809 705.97 352.448 707.189 352.797 708.817 352.913L708.642 359.071C705.795 358.838 703.529 357.909 701.902 356.341 700.276 354.772 699.229 352.507 698.822 349.545 698.358 346.176 699.055 343.33 700.856 341.065 702.715 338.742 705.504 337.348 709.281 336.825 713.058 336.302 716.195 336.882 718.578 338.566 720.96 340.309 722.412 342.864 722.935 346.291 723.343 349.079 723.051 351.403 722.064 353.261 721.076 355.062 719.391 356.514 717.009 357.618V357.502zM707.073 359.825 708.525 365.924C707.364 366.273 706.492 366.911 705.97 367.782 705.446 368.653 705.214 369.757 705.33 371.209 705.446 372.777 705.854 373.94 706.55 374.695 707.015 375.218 707.596 375.449 708.235 375.391 708.701 375.333 709.107 375.159 709.34 374.868 709.63 374.52 709.804 373.824 709.978 372.778 710.617 367.725 711.372 364.53 712.128 363.078 713.232 361.162 714.859 360.058 717.125 359.884 719.159 359.71 720.902 360.347 722.412 361.8 723.923 363.252 724.853 365.691 725.143 369.002 725.434 372.196 725.085 374.578 724.214 376.204 723.284 377.831 721.889 379.05 719.914 379.805L718.345 374.114C719.217 373.766 719.856 373.242 720.32 372.545 720.728 371.79 720.902 370.802 720.786 369.525 720.67 367.898 720.32 366.795 719.797 366.098 719.449 365.691 718.984 365.46 718.462 365.518 717.997 365.576 717.648 365.807 717.416 366.214 717.067 366.795 716.66 368.77 716.195 372.08 715.731 375.391 715.034 377.772 714.045 379.166 713.058 380.56 711.606 381.316 709.63 381.49 707.48 381.664 705.562 380.967 703.878 379.283 702.192 377.656 701.205 375.102 700.914 371.617 700.624 368.48 701.089 365.924 702.192 363.95 703.297 361.975 704.923 360.639 707.073 359.884V359.825z" fill="#0061ae"/></svg>